<svg width="301" height="297" viewBox="0 0 301 297" fill="none" xmlns="http://www.w3.org/2000/svg">
<path d="M54.807 87.1208C54.8486 87.1208 54.882 87.0871 54.882 87.0458C54.882 87.0044 54.8484 86.9708 54.807 86.9708C54.7657 86.9708 54.7321 87.0044 54.7321 87.0458C54.7322 87.0873 54.7657 87.1208 54.807 87.1208Z" fill="#898989"/>
<path d="M68.4058 87.2724C68.5308 87.2724 68.6321 87.1712 68.6321 87.0461C68.6321 86.9211 68.5308 86.8201 68.4058 86.8201C68.2808 86.8201 68.1796 86.9213 68.1796 87.0461C68.1794 87.171 68.2808 87.2724 68.4058 87.2724Z" fill="#898989"/>
<path d="M82.0041 87.4233C82.2124 87.4233 82.3811 87.2544 82.3811 87.0461C82.3811 86.8379 82.2122 86.6692 82.0041 86.6692C81.7958 86.6692 81.627 86.8381 81.627 87.0461C81.627 87.2544 81.7956 87.4233 82.0041 87.4233Z" fill="#898989"/>
<path d="M95.602 87.461C95.8312 87.461 96.0169 87.2753 96.0169 87.0461C96.0169 86.8172 95.8312 86.6315 95.602 86.6315C95.3731 86.6315 95.1874 86.8172 95.1874 87.0461C95.1874 87.2753 95.3731 87.461 95.602 87.461Z" fill="#898989"/>
<path d="M109.2 87.4233C109.409 87.4233 109.577 87.2544 109.577 87.0461C109.577 86.8379 109.409 86.6692 109.2 86.6692C108.992 86.6692 108.823 86.8381 108.823 87.0461C108.823 87.2544 108.992 87.4233 109.2 87.4233Z" fill="#898989"/>
<path d="M122.799 87.3101C122.944 87.3101 123.063 87.192 123.063 87.0461C123.063 86.9005 122.944 86.7822 122.799 86.7822C122.653 86.7822 122.535 86.9003 122.535 87.0461C122.534 87.192 122.653 87.3101 122.799 87.3101Z" fill="#898989"/>
<path d="M136.397 87.1592C136.459 87.1592 136.51 87.1085 136.51 87.0459C136.51 86.9835 136.459 86.9329 136.397 86.9329C136.334 86.9329 136.284 86.9833 136.284 87.0459C136.284 87.1085 136.334 87.1592 136.397 87.1592Z" fill="#898989"/>
<path d="M27.6111 100.682C27.6318 100.682 27.6486 100.665 27.6486 100.644C27.6486 100.623 27.6318 100.607 27.6111 100.607C27.5904 100.607 27.5736 100.623 27.5736 100.644C27.5736 100.665 27.5904 100.682 27.6111 100.682Z" fill="#898989"/>
<path d="M41.2095 100.908C41.3552 100.908 41.4734 100.79 41.4734 100.644C41.4734 100.499 41.3554 100.38 41.2095 100.38C41.0636 100.38 40.9456 100.499 40.9456 100.644C40.9454 100.79 41.0636 100.908 41.2095 100.908Z" fill="#898989"/>
<path d="M54.8074 101.248C55.1407 101.248 55.4108 100.977 55.4108 100.644C55.4108 100.311 55.1407 100.041 54.8074 100.041C54.4743 100.041 54.2042 100.311 54.2042 100.644C54.2042 100.977 54.4743 101.248 54.8074 101.248Z" fill="#898989"/>
<path d="M68.4058 101.474C68.8639 101.474 69.2353 101.102 69.2353 100.644C69.2353 100.186 68.8639 99.8147 68.4058 99.8147C67.9477 99.8147 67.5762 100.186 67.5762 100.644C67.5762 101.102 67.9475 101.474 68.4058 101.474Z" fill="#898989"/>
<path d="M82.004 101.625C82.5454 101.625 82.9844 101.186 82.9844 100.644C82.9844 100.103 82.5454 99.664 82.004 99.664C81.4625 99.664 81.0237 100.103 81.0237 100.644C81.0235 101.186 81.4625 101.625 82.004 101.625Z" fill="#898989"/>
<path d="M95.6021 101.7C96.1852 101.7 96.658 101.227 96.658 100.644C96.658 100.061 96.1854 99.5884 95.6021 99.5884C95.019 99.5884 94.5464 100.061 94.5464 100.644C94.5464 101.227 95.019 101.7 95.6021 101.7Z" fill="#898989"/>
<path d="M109.2 101.662C109.763 101.662 110.218 101.207 110.218 100.644C110.218 100.082 109.763 99.6263 109.2 99.6263C108.638 99.6263 108.182 100.082 108.182 100.644C108.182 101.207 108.638 101.662 109.2 101.662Z" fill="#898989"/>
<path d="M122.799 101.512C123.278 101.512 123.666 101.124 123.666 100.644C123.666 100.165 123.278 99.777 122.799 99.777C122.32 99.777 121.931 100.165 121.931 100.644C121.931 101.124 122.319 101.512 122.799 101.512Z" fill="#898989"/>
<path d="M136.397 101.285C136.751 101.285 137.038 100.998 137.038 100.644C137.038 100.29 136.751 100.003 136.397 100.003C136.043 100.003 135.756 100.29 135.756 100.644C135.756 100.999 136.043 101.285 136.397 101.285Z" fill="#898989"/>
<path d="M149.995 100.946C150.161 100.946 150.296 100.811 150.296 100.644C150.296 100.478 150.161 100.343 149.995 100.343C149.828 100.343 149.693 100.478 149.693 100.644C149.693 100.811 149.828 100.946 149.995 100.946Z" fill="#898989"/>
<path d="M163.593 100.682C163.614 100.682 163.631 100.665 163.631 100.644C163.631 100.623 163.614 100.607 163.593 100.607C163.572 100.607 163.556 100.623 163.556 100.644C163.556 100.665 163.572 100.682 163.593 100.682Z" fill="#898989"/>
<path d="M14.0127 114.28C14.0334 114.28 14.0502 114.263 14.0502 114.242C14.0502 114.222 14.0334 114.205 14.0127 114.205C13.992 114.205 13.9752 114.222 13.9752 114.242C13.9752 114.263 13.992 114.28 14.0127 114.28Z" fill="#898989"/>
<path d="M27.6112 114.62C27.8195 114.62 27.9884 114.451 27.9884 114.243C27.9884 114.034 27.8195 113.865 27.6112 113.865C27.4029 113.865 27.2343 114.034 27.2343 114.243C27.2341 114.451 27.4029 114.62 27.6112 114.62Z" fill="#898989"/>
<path d="M41.2094 115.035C41.6466 115.035 42.0012 114.68 42.0012 114.243C42.0012 113.806 41.6466 113.451 41.2094 113.451C40.7721 113.451 40.4176 113.806 40.4176 114.243C40.4176 114.68 40.772 115.035 41.2094 115.035Z" fill="#898989"/>
<path d="M54.8074 115.411C55.4531 115.411 55.9764 114.888 55.9764 114.243C55.9764 113.597 55.4531 113.074 54.8074 113.074C54.1619 113.074 53.6387 113.597 53.6387 114.243C53.6387 114.888 54.1619 115.411 54.8074 115.411Z" fill="#898989"/>
<path d="M68.4059 115.675C69.1973 115.675 69.8388 115.034 69.8388 114.243C69.8388 113.451 69.1973 112.809 68.4059 112.809C67.6147 112.809 66.973 113.451 66.973 114.243C66.973 115.034 67.6145 115.675 68.4059 115.675Z" fill="#898989"/>
<path d="M83.0328 115.502C83.7276 114.937 83.8329 113.915 83.2679 113.221C82.7029 112.526 81.6817 112.421 80.9868 112.986C80.292 113.551 80.1868 114.572 80.7517 115.267C81.3167 115.961 82.338 116.067 83.0328 115.502Z" fill="#898989"/>
<path d="M97.1582 114.892C97.5187 114.027 97.1098 113.033 96.2448 112.673C95.3799 112.312 94.3864 112.721 94.0259 113.586C93.6654 114.451 94.0744 115.445 94.9393 115.805C95.8043 116.166 96.7977 115.757 97.1582 114.892Z" fill="#898989"/>
<path d="M109.2 115.902C110.117 115.902 110.859 115.159 110.859 114.243C110.859 113.326 110.117 112.583 109.2 112.583C108.284 112.583 107.541 113.326 107.541 114.243C107.541 115.159 108.284 115.902 109.2 115.902Z" fill="#898989"/>
<path d="M122.799 115.713C123.611 115.713 124.269 115.055 124.269 114.243C124.269 113.43 123.611 112.772 122.799 112.772C121.986 112.772 121.328 113.43 121.328 114.243C121.328 115.055 121.986 115.713 122.799 115.713Z" fill="#898989"/>
<path d="M136.397 115.411C137.042 115.411 137.566 114.888 137.566 114.243C137.566 113.597 137.042 113.074 136.397 113.074C135.751 113.074 135.228 113.597 135.228 114.243C135.228 114.888 135.751 115.411 136.397 115.411Z" fill="#898989"/>
<path d="M149.995 115.072C150.453 115.072 150.825 114.701 150.825 114.243C150.825 113.784 150.453 113.413 149.995 113.413C149.537 113.413 149.165 113.784 149.165 114.243C149.165 114.701 149.537 115.072 149.995 115.072Z" fill="#898989"/>
<path d="M163.593 114.657C163.822 114.657 164.008 114.472 164.008 114.243C164.008 114.014 163.822 113.828 163.593 113.828C163.364 113.828 163.178 114.014 163.178 114.243C163.178 114.472 163.364 114.657 163.593 114.657Z" fill="#898989"/>
<path d="M177.191 114.28C177.212 114.28 177.229 114.263 177.229 114.242C177.229 114.222 177.212 114.205 177.191 114.205C177.17 114.205 177.154 114.222 177.154 114.242C177.154 114.263 177.17 114.28 177.191 114.28Z" fill="#898989"/>
<path d="M14.0128 128.105C14.1587 128.105 14.2768 127.987 14.2768 127.841C14.2768 127.695 14.1587 127.577 14.0128 127.577C13.8672 127.577 13.7489 127.695 13.7489 127.841C13.7491 127.987 13.8672 128.105 14.0128 128.105Z" fill="#898989"/>
<path d="M27.6112 128.633C28.0485 128.633 28.403 128.278 28.403 127.841C28.403 127.404 28.0485 127.049 27.6112 127.049C27.174 127.049 26.8195 127.404 26.8195 127.841C26.8193 128.278 27.1738 128.633 27.6112 128.633Z" fill="#898989"/>
<path d="M41.2094 129.123C41.9173 129.123 42.4914 128.549 42.4914 127.841C42.4914 127.133 41.9173 126.559 41.2094 126.559C40.5015 126.559 39.9272 127.133 39.9272 127.841C39.9272 128.549 40.5013 129.123 41.2094 129.123Z" fill="#898989"/>
<path d="M54.8074 129.538C55.7445 129.538 56.5042 128.778 56.5042 127.841C56.5042 126.904 55.7445 126.144 54.8074 126.144C53.8703 126.144 53.1106 126.904 53.1106 127.841C53.1106 128.778 53.8703 129.538 54.8074 129.538Z" fill="#898989"/>
<path d="M68.4059 129.877C69.5304 129.877 70.4422 128.965 70.4422 127.841C70.4422 126.716 69.5304 125.805 68.4059 125.805C67.2814 125.805 66.3696 126.716 66.3696 127.841C66.3696 128.965 67.2812 129.877 68.4059 129.877Z" fill="#898989"/>
<path d="M82.0041 130.103C83.2536 130.103 84.2665 129.09 84.2665 127.841C84.2665 126.591 83.2536 125.578 82.0041 125.578C80.7546 125.578 79.7416 126.591 79.7416 127.841C79.7416 129.09 80.7546 130.103 82.0041 130.103Z" fill="#898989"/>
<path d="M95.6021 130.179C96.8933 130.179 97.9399 129.132 97.9399 127.841C97.9399 126.55 96.8933 125.503 95.6021 125.503C94.311 125.503 93.2642 126.55 93.2642 127.841C93.2644 129.132 94.311 130.179 95.6021 130.179Z" fill="#898989"/>
<path d="M109.2 130.103C110.45 130.103 111.463 129.09 111.463 127.841C111.463 126.591 110.45 125.578 109.2 125.578C107.951 125.578 106.938 126.591 106.938 127.841C106.938 129.09 107.951 130.103 109.2 130.103Z" fill="#898989"/>
<path d="M122.799 129.915C123.944 129.915 124.872 128.986 124.872 127.841C124.872 126.695 123.944 125.767 122.799 125.767C121.653 125.767 120.725 126.695 120.725 127.841C120.725 128.986 121.653 129.915 122.799 129.915Z" fill="#898989"/>
<path d="M136.397 129.575C137.355 129.575 138.131 128.799 138.131 127.841C138.131 126.883 137.355 126.106 136.397 126.106C135.439 126.106 134.662 126.883 134.662 127.841C134.662 128.799 135.439 129.575 136.397 129.575Z" fill="#898989"/>
<path d="M149.995 129.161C150.724 129.161 151.315 128.57 151.315 127.841C151.315 127.112 150.724 126.521 149.995 126.521C149.266 126.521 148.675 127.112 148.675 127.841C148.675 128.57 149.266 129.161 149.995 129.161Z" fill="#898989"/>
<path d="M163.593 128.67C164.051 128.67 164.423 128.299 164.423 127.841C164.423 127.382 164.051 127.011 163.593 127.011C163.135 127.011 162.764 127.382 162.764 127.841C162.764 128.299 163.135 128.67 163.593 128.67Z" fill="#898989"/>
<path d="M177.191 128.18C177.379 128.18 177.531 128.028 177.531 127.841C177.531 127.653 177.379 127.501 177.191 127.501C177.004 127.501 176.852 127.653 176.852 127.841C176.852 128.028 177.004 128.18 177.191 128.18Z" fill="#898989"/>
<path d="M0.414464 141.514C0.455802 141.514 0.48945 141.48 0.48945 141.439C0.48945 141.397 0.455802 141.364 0.414464 141.364C0.372933 141.364 0.339478 141.397 0.339478 141.439C0.339286 141.48 0.372933 141.514 0.414464 141.514Z" fill="#898989"/>
<path d="M14.0129 142.042C14.3462 142.042 14.6163 141.772 14.6163 141.439C14.6163 141.106 14.3462 140.836 14.0129 140.836C13.6798 140.836 13.4097 141.106 13.4097 141.439C13.4097 141.772 13.6798 142.042 14.0129 142.042Z" fill="#898989"/>
<path d="M27.6112 142.608C28.2567 142.608 28.7802 142.084 28.7802 141.439C28.7802 140.793 28.2567 140.27 27.6112 140.27C26.9657 140.27 26.4423 140.793 26.4423 141.439C26.4421 142.084 26.9655 142.608 27.6112 142.608Z" fill="#898989"/>
<path d="M41.5774 143.088C42.4914 142.881 43.0647 141.972 42.8579 141.058C42.651 140.144 41.7424 139.571 40.8285 139.778C39.9145 139.985 39.3412 140.893 39.5481 141.807C39.7549 142.721 40.6635 143.295 41.5774 143.088Z" fill="#898989"/>
<path d="M54.8075 143.626C56.0154 143.626 56.9947 142.647 56.9947 141.439C56.9947 140.231 56.0154 139.252 54.8075 139.252C53.5997 139.252 52.6205 140.231 52.6205 141.439C52.6205 142.647 53.5997 143.626 54.8075 143.626Z" fill="#898989"/>
<path d="M70.2169 143.251C71.2183 142.25 71.2183 140.627 70.2169 139.625C69.2156 138.624 67.592 138.624 66.5907 139.625C65.5893 140.627 65.5893 142.25 66.5907 143.251C67.592 144.253 69.2156 144.253 70.2169 143.251Z" fill="#898989"/>
<path d="M82.004 144.305C83.5867 144.305 84.8696 143.022 84.8696 141.439C84.8696 139.856 83.5867 138.573 82.004 138.573C80.4214 138.573 79.1383 139.856 79.1383 141.439C79.1383 143.022 80.4212 144.305 82.004 144.305Z" fill="#898989"/>
<path d="M95.6021 144.418C97.2473 144.418 98.581 143.084 98.581 141.439C98.581 139.794 97.2475 138.46 95.6021 138.46C93.9569 138.46 92.6233 139.794 92.6233 141.439C92.6233 143.084 93.9571 144.418 95.6021 144.418Z" fill="#898989"/>
<path d="M110.318 144.123C111.799 143.509 112.503 141.811 111.889 140.329C111.276 138.848 109.577 138.144 108.095 138.758C106.614 139.372 105.91 141.07 106.524 142.552C107.138 144.033 108.836 144.737 110.318 144.123Z" fill="#898989"/>
<path d="M122.799 144.041C124.236 144.041 125.401 142.876 125.401 141.439C125.401 140.002 124.236 138.837 122.799 138.837C121.362 138.837 120.197 140.002 120.197 141.439C120.197 142.876 121.362 144.041 122.799 144.041Z" fill="#898989"/>
<path d="M136.397 143.664C137.625 143.664 138.622 142.668 138.622 141.439C138.622 140.21 137.625 139.214 136.397 139.214C135.168 139.214 134.172 140.21 134.172 141.439C134.172 142.668 135.168 143.664 136.397 143.664Z" fill="#898989"/>
<path d="M149.995 143.173C150.953 143.173 151.729 142.397 151.729 141.439C151.729 140.481 150.953 139.704 149.995 139.704C149.037 139.704 148.26 140.481 148.26 141.439C148.26 142.397 149.037 143.173 149.995 143.173Z" fill="#898989"/>
<path d="M163.593 142.646C164.26 142.646 164.8 142.105 164.8 141.439C164.8 140.773 164.26 140.232 163.593 140.232C162.927 140.232 162.387 140.773 162.387 141.439C162.387 142.105 162.927 142.646 163.593 142.646Z" fill="#898989"/>
<path d="M177.191 142.08C177.545 142.08 177.832 141.793 177.832 141.439C177.832 141.085 177.545 140.798 177.191 140.798C176.837 140.798 176.55 141.085 176.55 141.439C176.55 141.793 176.837 142.08 177.191 142.08Z" fill="#898989"/>
<path d="M190.789 141.552C190.852 141.552 190.903 141.502 190.903 141.439C190.903 141.377 190.852 141.326 190.789 141.326C190.727 141.326 190.676 141.376 190.676 141.439C190.676 141.501 190.727 141.552 190.789 141.552Z" fill="#898989"/>
<path d="M0.414853 155.263C0.539863 155.263 0.641105 155.162 0.641105 155.037C0.641105 154.912 0.539863 154.811 0.414853 154.811C0.289844 154.811 0.188599 154.912 0.188599 155.037C0.188599 155.162 0.289844 155.263 0.414853 155.263Z" fill="#898989"/>
<path d="M14.0128 155.867C14.4711 155.867 14.8425 155.495 14.8425 155.037C14.8425 154.579 14.4711 154.208 14.0128 154.208C13.5547 154.208 13.1833 154.579 13.1833 155.037C13.1833 155.495 13.5547 155.867 14.0128 155.867Z" fill="#898989"/>
<path d="M27.6112 156.47C28.4026 156.47 29.0441 155.829 29.0441 155.037C29.0441 154.246 28.4026 153.604 27.6112 153.604C26.82 153.604 26.1783 154.246 26.1783 155.037C26.1783 155.829 26.8198 156.47 27.6112 156.47Z" fill="#898989"/>
<path d="M41.2095 157.073C42.334 157.073 43.2456 156.162 43.2456 155.037C43.2456 153.913 42.334 153.001 41.2095 153.001C40.085 153.001 39.1732 153.913 39.1732 155.037C39.1732 156.162 40.0848 157.073 41.2095 157.073Z" fill="#898989"/>
<path d="M56.6185 156.85C57.6199 155.848 57.6199 154.225 56.6185 153.223C55.6172 152.222 53.9937 152.222 52.9923 153.223C51.991 154.225 51.991 155.848 52.9923 156.85C53.9937 157.851 55.6172 157.851 56.6185 156.85Z" fill="#898989"/>
<path d="M68.4058 158.129C70.1135 158.129 71.4978 156.745 71.4978 155.037C71.4978 153.33 70.1135 151.945 68.4058 151.945C66.6982 151.945 65.3138 153.329 65.3138 155.037C65.3138 156.745 66.6982 158.129 68.4058 158.129Z" fill="#898989"/>
<path d="M82.0041 158.506C83.92 158.506 85.4732 156.953 85.4732 155.037C85.4732 153.121 83.92 151.568 82.0041 151.568C80.0881 151.568 78.5349 153.121 78.5349 155.037C78.5349 156.953 80.0881 158.506 82.0041 158.506Z" fill="#898989"/>
<path d="M95.6021 158.657C97.6012 158.657 99.2219 157.036 99.2219 155.037C99.2219 153.038 97.6012 151.417 95.6021 151.417C93.6029 151.417 91.9822 153.038 91.9822 155.037C91.9824 157.037 93.6031 158.657 95.6021 158.657Z" fill="#898989"/>
<path d="M109.2 158.506C111.116 158.506 112.669 156.953 112.669 155.037C112.669 153.121 111.116 151.568 109.2 151.568C107.284 151.568 105.731 153.121 105.731 155.037C105.731 156.953 107.284 158.506 109.2 158.506Z" fill="#898989"/>
<path d="M122.799 158.167C124.527 158.167 125.928 156.766 125.928 155.037C125.928 153.309 124.527 151.907 122.799 151.907C121.07 151.907 119.669 153.308 119.669 155.037C119.669 156.766 121.07 158.167 122.799 158.167Z" fill="#898989"/>
<path d="M136.397 157.677C137.854 157.677 139.036 156.495 139.036 155.037C139.036 153.579 137.854 152.398 136.397 152.398C134.939 152.398 133.757 153.58 133.757 155.037C133.757 156.495 134.939 157.677 136.397 157.677Z" fill="#898989"/>
<path d="M149.995 157.111C151.14 157.111 152.069 156.183 152.069 155.037C152.069 153.892 151.14 152.963 149.995 152.963C148.85 152.963 147.921 153.892 147.921 155.037C147.921 156.183 148.85 157.111 149.995 157.111Z" fill="#898989"/>
<path d="M164.657 156.104C165.246 155.515 165.246 154.56 164.657 153.971C164.068 153.382 163.113 153.382 162.524 153.971C161.935 154.56 161.935 155.515 162.524 156.104C163.113 156.693 164.068 156.693 164.657 156.104Z" fill="#898989"/>
<path d="M177.191 155.942C177.691 155.942 178.096 155.537 178.096 155.037C178.096 154.537 177.691 154.132 177.191 154.132C176.691 154.132 176.286 154.537 176.286 155.037C176.286 155.537 176.691 155.942 177.191 155.942Z" fill="#898989"/>
<path d="M190.789 155.339C190.956 155.339 191.091 155.204 191.091 155.037C191.091 154.87 190.956 154.735 190.789 154.735C190.623 154.735 190.488 154.87 190.488 155.037C190.488 155.204 190.623 155.339 190.789 155.339Z" fill="#898989"/>
<path d="M0.414876 169.013C0.62316 169.013 0.791834 168.844 0.791834 168.635C0.791834 168.427 0.622967 168.258 0.414876 168.258C0.206591 168.258 0.0377197 168.427 0.0377197 168.635C0.0377197 168.844 0.206591 169.013 0.414876 169.013Z" fill="#898989"/>
<path d="M14.0129 169.616C14.5545 169.616 14.9933 169.177 14.9933 168.635C14.9933 168.094 14.5543 167.655 14.0129 167.655C13.4715 167.655 13.0327 168.094 13.0327 168.635C13.0327 169.177 13.4715 169.616 14.0129 169.616Z" fill="#898989"/>
<path d="M27.6112 170.257C28.5066 170.257 29.2326 169.531 29.2326 168.635C29.2326 167.74 28.5067 167.014 27.6112 167.014C26.7157 167.014 25.9897 167.74 25.9897 168.635C25.9897 169.531 26.7157 170.257 27.6112 170.257Z" fill="#898989"/>
<path d="M41.2094 170.898C42.4589 170.898 43.4718 169.885 43.4718 168.635C43.4718 167.386 42.4589 166.373 41.2094 166.373C39.9599 166.373 38.9469 167.386 38.9469 168.635C38.9469 169.885 39.9599 170.898 41.2094 170.898Z" fill="#898989"/>
<path d="M54.8074 171.501C56.3902 171.501 57.6731 170.218 57.6731 168.635C57.6731 167.053 56.3902 165.77 54.8074 165.77C53.2248 165.77 51.9417 167.053 51.9417 168.635C51.9418 170.218 53.2248 171.501 54.8074 171.501Z" fill="#898989"/>
<path d="M69.9532 171.731C71.6668 170.874 72.3614 168.79 71.5046 167.077C70.6478 165.363 68.564 164.668 66.8504 165.525C65.1367 166.382 64.4421 168.466 65.299 170.179C66.1558 171.893 68.2395 172.588 69.9532 171.731Z" fill="#898989"/>
<path d="M82.004 172.595C84.1906 172.595 85.9632 170.822 85.9632 168.635C85.9632 166.449 84.1906 164.676 82.004 164.676C79.8174 164.676 78.0447 166.449 78.0447 168.635C78.0447 170.822 79.8172 172.595 82.004 172.595Z" fill="#898989"/>
<path d="M95.6021 172.859C97.9345 172.859 99.8253 170.968 99.8253 168.635C99.8253 166.303 97.9345 164.412 95.6021 164.412C93.2696 164.412 91.3788 166.303 91.3788 168.635C91.379 170.968 93.2698 172.859 95.6021 172.859Z" fill="#898989"/>
<path d="M109.2 172.632C111.408 172.632 113.197 170.843 113.197 168.635C113.197 166.428 111.408 164.638 109.2 164.638C106.993 164.638 105.203 166.428 105.203 168.635C105.203 170.843 106.993 172.632 109.2 172.632Z" fill="#898989"/>
<path d="M122.799 172.142C124.735 172.142 126.306 170.572 126.306 168.635C126.306 166.699 124.735 165.129 122.799 165.129C120.862 165.129 119.292 166.699 119.292 168.635C119.292 170.572 120.862 172.142 122.799 172.142Z" fill="#898989"/>
<path d="M136.397 171.539C138 171.539 139.3 170.239 139.3 168.635C139.3 167.032 138 165.732 136.397 165.732C134.793 165.732 133.493 167.032 133.493 168.635C133.493 170.239 134.793 171.539 136.397 171.539Z" fill="#898989"/>
<path d="M149.995 170.936C151.265 170.936 152.295 169.906 152.295 168.635C152.295 167.365 151.265 166.335 149.995 166.335C148.725 166.335 147.695 167.365 147.695 168.635C147.695 169.906 148.725 170.936 149.995 170.936Z" fill="#898989"/>
<path d="M163.593 170.332C164.53 170.332 165.29 169.572 165.29 168.635C165.29 167.698 164.53 166.939 163.593 166.939C162.656 166.939 161.896 167.698 161.896 168.635C161.896 169.572 162.656 170.332 163.593 170.332Z" fill="#898989"/>
<path d="M177.191 169.691C177.775 169.691 178.247 169.218 178.247 168.635C178.247 168.052 177.775 167.579 177.191 167.579C176.608 167.579 176.135 168.052 176.135 168.635C176.135 169.218 176.608 169.691 177.191 169.691Z" fill="#898989"/>
<path d="M190.79 169.05C191.019 169.05 191.204 168.865 191.204 168.635C191.204 168.406 191.019 168.221 190.79 168.221C190.56 168.221 190.375 168.406 190.375 168.635C190.375 168.865 190.561 169.05 190.79 169.05Z" fill="#898989"/>
<path d="M0.414831 182.648C0.643789 182.648 0.829467 182.463 0.829467 182.234C0.829467 182.004 0.643789 181.819 0.414831 181.819C0.185679 181.819 0 182.004 0 182.234C0 182.463 0.185679 182.648 0.414831 182.648Z" fill="#898989"/>
<path d="M14.0129 183.289C14.5962 183.289 15.0688 182.817 15.0688 182.234C15.0688 181.65 14.5962 181.178 14.0129 181.178C13.4298 181.178 12.9572 181.65 12.9572 182.234C12.9572 182.817 13.43 183.289 14.0129 183.289Z" fill="#898989"/>
<path d="M27.6112 183.93C28.5483 183.93 29.308 183.171 29.308 182.234C29.308 181.296 28.5483 180.537 27.6112 180.537C26.6741 180.537 25.9144 181.296 25.9144 182.234C25.9144 183.171 26.6741 183.93 27.6112 183.93Z" fill="#898989"/>
<path d="M41.2095 184.571C42.5005 184.571 43.5474 183.525 43.5474 182.234C43.5474 180.943 42.5005 179.896 41.2095 179.896C39.9182 179.896 38.8716 180.943 38.8716 182.234C38.8714 183.525 39.9182 184.571 41.2095 184.571Z" fill="#898989"/>
<path d="M54.8074 185.213C56.4528 185.213 57.7864 183.879 57.7864 182.234C57.7864 180.588 56.4528 179.255 54.8074 179.255C53.1622 179.255 51.8286 180.588 51.8286 182.234C51.8286 183.879 53.1624 185.213 54.8074 185.213Z" fill="#898989"/>
<path d="M69.2431 185.74C71.1887 185.28 72.3935 183.33 71.9341 181.385C71.4746 179.439 69.525 178.234 67.5794 178.694C65.6337 179.153 64.4289 181.103 64.8884 183.049C65.3478 184.994 67.2974 186.199 69.2431 185.74Z" fill="#898989"/>
<path d="M82.004 186.457C84.3365 186.457 86.2273 184.566 86.2273 182.234C86.2273 179.901 84.3365 178.01 82.004 178.01C79.6716 178.01 77.7808 179.901 77.7808 182.234C77.7808 184.566 79.6716 186.457 82.004 186.457Z" fill="#898989"/>
<path d="M95.6021 186.909C98.1846 186.909 100.278 184.816 100.278 182.234C100.278 179.651 98.1846 177.558 95.6021 177.558C93.0198 177.558 90.9265 179.651 90.9265 182.234C90.9265 184.816 93.0198 186.909 95.6021 186.909Z" fill="#898989"/>
<path d="M109.2 186.532C111.574 186.532 113.499 184.608 113.499 182.234C113.499 179.86 111.574 177.935 109.2 177.935C106.826 177.935 104.902 179.86 104.902 182.234C104.902 184.608 106.826 186.532 109.2 186.532Z" fill="#898989"/>
<path d="M122.799 185.891C124.819 185.891 126.456 184.254 126.456 182.234C126.456 180.213 124.819 178.576 122.799 178.576C120.778 178.576 119.141 180.213 119.141 182.234C119.141 184.254 120.778 185.891 122.799 185.891Z" fill="#898989"/>
<path d="M136.397 185.288C138.084 185.288 139.451 183.92 139.451 182.234C139.451 180.547 138.083 179.179 136.397 179.179C134.71 179.179 133.343 180.547 133.343 182.234C133.343 183.92 134.71 185.288 136.397 185.288Z" fill="#898989"/>
<path d="M149.995 184.647C151.328 184.647 152.408 183.566 152.408 182.234C152.408 180.901 151.328 179.82 149.995 179.82C148.662 179.82 147.582 180.901 147.582 182.234C147.582 183.566 148.662 184.647 149.995 184.647Z" fill="#898989"/>
<path d="M163.593 184.006C164.572 184.006 165.365 183.212 165.365 182.234C165.365 181.255 164.572 180.461 163.593 180.461C162.615 180.461 161.821 181.255 161.821 182.234C161.821 183.212 162.615 184.006 163.593 184.006Z" fill="#898989"/>
<path d="M177.191 183.365C177.816 183.365 178.323 182.858 178.323 182.234C178.323 181.609 177.816 181.102 177.191 181.102C176.566 181.102 176.06 181.609 176.06 182.234C176.06 182.858 176.567 183.365 177.191 183.365Z" fill="#898989"/>
<path d="M190.789 182.724C191.06 182.724 191.28 182.504 191.28 182.234C191.28 181.963 191.06 181.743 190.789 181.743C190.519 181.743 190.299 181.963 190.299 182.234C190.3 182.504 190.519 182.724 190.789 182.724Z" fill="#898989"/>
<path d="M204.388 182.271C204.408 182.271 204.425 182.254 204.425 182.233C204.425 182.213 204.408 182.196 204.388 182.196C204.367 182.196 204.35 182.213 204.35 182.233C204.35 182.254 204.367 182.271 204.388 182.271Z" fill="#898989"/>
<path d="M0.414876 196.209C0.62316 196.209 0.791834 196.04 0.791834 195.832C0.791834 195.624 0.622967 195.455 0.414876 195.455C0.206591 195.455 0.0377197 195.624 0.0377197 195.832C0.0377197 196.04 0.206591 196.209 0.414876 196.209Z" fill="#898989"/>
<path d="M14.0128 196.85C14.5751 196.85 15.0308 196.394 15.0308 195.832C15.0308 195.27 14.5751 194.814 14.0128 194.814C13.4505 194.814 12.9948 195.27 12.9948 195.832C12.9949 196.394 13.4505 196.85 14.0128 196.85Z" fill="#898989"/>
<path d="M27.6113 197.491C28.5276 197.491 29.2704 196.748 29.2704 195.832C29.2704 194.915 28.5276 194.173 27.6113 194.173C26.695 194.173 25.9521 194.915 25.9521 195.832C25.9521 196.748 26.695 197.491 27.6113 197.491Z" fill="#898989"/>
<path d="M41.2094 198.094C42.4589 198.094 43.4718 197.081 43.4718 195.832C43.4718 194.582 42.4589 193.569 41.2094 193.569C39.9599 193.569 38.9469 194.582 38.9469 195.832C38.9469 197.081 39.9599 198.094 41.2094 198.094Z" fill="#898989"/>
<path d="M54.8075 198.735C56.4112 198.735 57.7109 197.435 57.7109 195.832C57.7109 194.228 56.411 192.928 54.8075 192.928C53.204 192.928 51.9041 194.228 51.9041 195.832C51.9042 197.435 53.204 198.735 54.8075 198.735Z" fill="#898989"/>
<path d="M71.618 197.161C72.3512 195.391 71.5106 193.362 69.7405 192.628C67.9703 191.895 65.9409 192.736 65.2077 194.506C64.4744 196.276 65.315 198.305 67.0852 199.039C68.8553 199.772 70.8847 198.931 71.618 197.161Z" fill="#898989"/>
<path d="M82.0041 199.829C84.2116 199.829 86.0009 198.039 86.0009 195.832C86.0009 193.625 84.2114 191.835 82.0041 191.835C79.7966 191.835 78.0071 193.625 78.0071 195.832C78.0069 198.039 79.7966 199.829 82.0041 199.829Z" fill="#898989"/>
<path d="M96.1752 200.106C98.5281 199.789 100.179 197.625 99.8621 195.272C99.5454 192.919 97.3813 191.268 95.0283 191.585C92.6754 191.902 91.0247 194.066 91.3414 196.419C91.6581 198.772 93.8223 200.423 96.1752 200.106Z" fill="#898989"/>
<path d="M110.233 199.77C112.41 199.205 113.717 196.982 113.151 194.805C112.586 192.628 110.363 191.322 108.186 191.887C106.009 192.453 104.703 194.676 105.268 196.853C105.833 199.03 108.057 200.336 110.233 199.77Z" fill="#898989"/>
<path d="M122.799 199.376C124.756 199.376 126.343 197.789 126.343 195.832C126.343 193.874 124.756 192.287 122.799 192.287C120.841 192.287 119.254 193.874 119.254 195.832C119.254 197.789 120.841 199.376 122.799 199.376Z" fill="#898989"/>
<path d="M136.397 198.773C138.021 198.773 139.338 197.456 139.338 195.832C139.338 194.207 138.021 192.89 136.397 192.89C134.773 192.89 133.456 194.207 133.456 195.832C133.456 197.456 134.773 198.773 136.397 198.773Z" fill="#898989"/>
<path d="M149.995 198.132C151.265 198.132 152.295 197.102 152.295 195.832C152.295 194.561 151.265 193.532 149.995 193.532C148.725 193.532 147.695 194.562 147.695 195.832C147.695 197.102 148.725 198.132 149.995 198.132Z" fill="#898989"/>
<path d="M163.593 197.529C164.53 197.529 165.29 196.769 165.29 195.832C165.29 194.895 164.53 194.135 163.593 194.135C162.656 194.135 161.896 194.895 161.896 195.832C161.896 196.769 162.656 197.529 163.593 197.529Z" fill="#898989"/>
<path d="M177.191 196.888C177.775 196.888 178.247 196.415 178.247 195.832C178.247 195.248 177.775 194.776 177.191 194.776C176.608 194.776 176.135 195.248 176.135 195.832C176.135 196.415 176.608 196.888 177.191 196.888Z" fill="#898989"/>
<path d="M190.79 196.247C191.019 196.247 191.204 196.061 191.204 195.832C191.204 195.603 191.019 195.417 190.79 195.417C190.56 195.417 190.375 195.603 190.375 195.832C190.375 196.061 190.561 196.247 190.79 196.247Z" fill="#898989"/>
<path d="M0.414812 209.694C0.560495 209.694 0.678741 209.576 0.678741 209.43C0.678741 209.284 0.560688 209.166 0.414812 209.166C0.268935 209.166 0.150879 209.284 0.150879 209.43C0.150879 209.576 0.268935 209.694 0.414812 209.694Z" fill="#898989"/>
<path d="M14.0128 210.297C14.4918 210.297 14.8802 209.909 14.8802 209.43C14.8802 208.951 14.492 208.562 14.0128 208.562C13.5339 208.562 13.1455 208.951 13.1455 209.43C13.1457 209.909 13.5341 210.297 14.0128 210.297Z" fill="#898989"/>
<path d="M27.6112 210.901C28.4234 210.901 29.0817 210.242 29.0817 209.43C29.0817 208.618 28.4234 207.959 27.6112 207.959C26.7989 207.959 26.1406 208.618 26.1406 209.43C26.1406 210.242 26.7989 210.901 27.6112 210.901Z" fill="#898989"/>
<path d="M41.2095 211.504C42.3548 211.504 43.2832 210.576 43.2832 209.43C43.2832 208.285 42.3548 207.356 41.2095 207.356C40.0641 207.356 39.1355 208.285 39.1355 209.43C39.1355 210.575 40.0641 211.504 41.2095 211.504Z" fill="#898989"/>
<path d="M56.6449 211.269C57.6609 210.253 57.6609 208.605 56.6448 207.589C55.6288 206.573 53.9814 206.573 52.9654 207.589C51.9493 208.605 51.9493 210.253 52.9653 211.269C53.9814 212.285 55.6288 212.285 56.6449 211.269Z" fill="#898989"/>
<path d="M68.4058 212.56C70.1343 212.56 71.5355 211.158 71.5355 209.43C71.5355 207.701 70.1343 206.3 68.4058 206.3C66.6773 206.3 65.2761 207.701 65.2761 209.43C65.2761 211.158 66.6773 212.56 68.4058 212.56Z" fill="#898989"/>
<path d="M82.004 212.937C83.9408 212.937 85.5109 211.367 85.5109 209.43C85.5109 207.493 83.9408 205.923 82.004 205.923C80.0672 205.923 78.4972 207.493 78.4972 209.43C78.4972 211.367 80.0672 212.937 82.004 212.937Z" fill="#898989"/>
<path d="M95.6021 213.088C97.6224 213.088 99.2597 211.45 99.2597 209.43C99.2597 207.41 97.6222 205.772 95.6021 205.772C93.5821 205.772 91.9446 207.41 91.9446 209.43C91.9446 211.45 93.5821 213.088 95.6021 213.088Z" fill="#898989"/>
<path d="M109.2 212.975C111.158 212.975 112.745 211.388 112.745 209.43C112.745 207.473 111.158 205.886 109.2 205.886C107.243 205.886 105.656 207.473 105.656 209.43C105.656 211.388 107.243 212.975 109.2 212.975Z" fill="#898989"/>
<path d="M122.799 212.597C124.548 212.597 125.966 211.179 125.966 209.43C125.966 207.681 124.548 206.262 122.799 206.262C121.049 206.262 119.631 207.681 119.631 209.43C119.631 211.179 121.049 212.597 122.799 212.597Z" fill="#898989"/>
<path d="M136.397 212.107C137.875 212.107 139.074 210.909 139.074 209.43C139.074 207.952 137.875 206.753 136.397 206.753C134.918 206.753 133.719 207.951 133.719 209.43C133.72 210.909 134.918 212.107 136.397 212.107Z" fill="#898989"/>
<path d="M149.995 211.542C151.161 211.542 152.106 210.596 152.106 209.43C152.106 208.264 151.161 207.319 149.995 207.319C148.829 207.319 147.883 208.264 147.883 209.43C147.883 210.596 148.829 211.542 149.995 211.542Z" fill="#898989"/>
<path d="M163.593 210.938C164.426 210.938 165.102 210.263 165.102 209.43C165.102 208.597 164.426 207.922 163.593 207.922C162.76 207.922 162.085 208.597 162.085 209.43C162.085 210.263 162.76 210.938 163.593 210.938Z" fill="#898989"/>
<path d="M177.191 210.335C177.691 210.335 178.096 209.93 178.096 209.43C178.096 208.93 177.691 208.525 177.191 208.525C176.691 208.525 176.286 208.93 176.286 209.43C176.286 209.93 176.691 210.335 177.191 210.335Z" fill="#898989"/>
<path d="M190.789 209.732C190.956 209.732 191.091 209.597 191.091 209.43C191.091 209.263 190.956 209.128 190.789 209.128C190.623 209.128 190.488 209.263 190.488 209.43C190.488 209.597 190.623 209.732 190.789 209.732Z" fill="#898989"/>
<path d="M0.414862 223.141C0.477393 223.141 0.528085 223.091 0.528085 223.028C0.528085 222.966 0.477393 222.915 0.414862 222.915C0.35233 222.915 0.301636 222.966 0.301636 223.028C0.301636 223.091 0.35233 223.141 0.414862 223.141Z" fill="#898989"/>
<path d="M14.0128 223.669C14.367 223.669 14.6539 223.382 14.6539 223.028C14.6539 222.674 14.3668 222.387 14.0128 222.387C13.6589 222.387 13.3719 222.674 13.3719 223.028C13.3719 223.382 13.6591 223.669 14.0128 223.669Z" fill="#898989"/>
<path d="M27.6112 224.197C28.2568 224.197 28.7802 223.674 28.7802 223.028C28.7802 222.383 28.2568 221.859 27.6112 221.859C26.9656 221.859 26.4423 222.383 26.4423 223.028C26.4423 223.674 26.9656 224.197 27.6112 224.197Z" fill="#898989"/>
<path d="M41.4934 224.742C42.439 224.589 43.0811 223.698 42.9277 222.752C42.7742 221.807 41.8833 221.164 40.9377 221.318C39.9921 221.471 39.35 222.362 39.5035 223.308C39.6569 224.253 40.5479 224.896 41.4934 224.742Z" fill="#898989"/>
<path d="M54.8074 225.253C56.0363 225.253 57.0323 224.257 57.0323 223.028C57.0323 221.8 56.0363 220.804 54.8074 220.804C53.5788 220.804 52.5828 221.8 52.5828 223.028C52.5828 224.257 53.5788 225.253 54.8074 225.253Z" fill="#898989"/>
<path d="M68.861 225.624C70.2977 225.378 71.2626 224.013 71.0161 222.577C70.7696 221.14 69.4051 220.175 67.9683 220.421C66.5315 220.668 65.5667 222.033 65.8132 223.469C66.0597 224.906 67.4242 225.871 68.861 225.624Z" fill="#898989"/>
<path d="M82.0041 225.932C83.6076 225.932 84.9075 224.632 84.9075 223.028C84.9075 221.425 83.6076 220.125 82.0041 220.125C80.4004 220.125 79.1005 221.425 79.1005 223.028C79.1005 224.632 80.4004 225.932 82.0041 225.932Z" fill="#898989"/>
<path d="M95.6021 226.083C97.289 226.083 98.6564 224.715 98.6564 223.028C98.6564 221.341 97.2888 219.974 95.6021 219.974C93.9153 219.974 92.5477 221.341 92.5477 223.028C92.5479 224.715 93.9153 226.083 95.6021 226.083Z" fill="#898989"/>
<path d="M109.2 225.969C110.825 225.969 112.142 224.653 112.142 223.028C112.142 221.404 110.825 220.087 109.2 220.087C107.576 220.087 106.259 221.404 106.259 223.028C106.259 224.653 107.576 225.969 109.2 225.969Z" fill="#898989"/>
<path d="M125.452 223.152C125.523 221.675 124.384 220.42 122.907 220.349C121.43 220.278 120.175 221.418 120.104 222.895C120.033 224.371 121.173 225.626 122.65 225.697C124.127 225.768 125.381 224.628 125.452 223.152Z" fill="#898989"/>
<path d="M136.397 225.291C137.646 225.291 138.659 224.278 138.659 223.028C138.659 221.779 137.646 220.766 136.397 220.766C135.147 220.766 134.134 221.779 134.134 223.028C134.134 224.278 135.147 225.291 136.397 225.291Z" fill="#898989"/>
<path d="M149.995 224.8C150.974 224.8 151.767 224.007 151.767 223.028C151.767 222.049 150.974 221.256 149.995 221.256C149.016 221.256 148.223 222.049 148.223 223.028C148.223 224.007 149.016 224.8 149.995 224.8Z" fill="#898989"/>
<path d="M163.593 224.273C164.281 224.273 164.838 223.715 164.838 223.028C164.838 222.341 164.281 221.784 163.593 221.784C162.906 221.784 162.349 222.341 162.349 223.028C162.349 223.715 162.906 224.273 163.593 224.273Z" fill="#898989"/>
<path d="M177.191 223.707C177.566 223.707 177.87 223.403 177.87 223.028C177.87 222.653 177.566 222.349 177.191 222.349C176.816 222.349 176.513 222.653 176.513 223.028C176.513 223.403 176.816 223.707 177.191 223.707Z" fill="#898989"/>
<path d="M190.789 223.179C190.873 223.179 190.94 223.111 190.94 223.028C190.94 222.945 190.873 222.877 190.789 222.877C190.706 222.877 190.639 222.945 190.639 223.028C190.639 223.111 190.706 223.179 190.789 223.179Z" fill="#898989"/>
<path d="M14.0128 236.928C14.1795 236.928 14.3146 236.793 14.3146 236.626C14.3146 236.46 14.1795 236.325 14.0128 236.325C13.8462 236.325 13.7112 236.46 13.7112 236.626C13.7114 236.793 13.8464 236.928 14.0128 236.928Z" fill="#898989"/>
<path d="M27.6112 237.456C28.0693 237.456 28.4407 237.085 28.4407 236.626C28.4407 236.168 28.0693 235.797 27.6112 235.797C27.1531 235.797 26.7817 236.168 26.7817 236.626C26.7815 237.085 27.1531 237.456 27.6112 237.456Z" fill="#898989"/>
<path d="M41.2095 237.946C41.9383 237.946 42.5291 237.355 42.5291 236.626C42.5291 235.897 41.9383 235.307 41.2095 235.307C40.4805 235.307 39.8896 235.897 39.8896 236.626C39.8896 237.355 40.4805 237.946 41.2095 237.946Z" fill="#898989"/>
<path d="M54.8075 238.361C55.7654 238.361 56.542 237.584 56.542 236.626C56.542 235.668 55.7654 234.892 54.8075 234.892C53.8496 234.892 53.073 235.668 53.073 236.626C53.073 237.584 53.8496 238.361 54.8075 238.361Z" fill="#898989"/>
<path d="M68.4058 238.7C69.5512 238.7 70.4798 237.772 70.4798 236.626C70.4798 235.481 69.5512 234.552 68.4058 234.552C67.2604 234.552 66.332 235.481 66.332 236.626C66.332 237.772 67.2604 238.7 68.4058 238.7Z" fill="#898989"/>
<path d="M82.0041 238.927C83.2744 238.927 84.3041 237.897 84.3041 236.626C84.3041 235.356 83.2743 234.326 82.0041 234.326C80.7339 234.326 79.7039 235.356 79.7039 236.626C79.7039 237.897 80.7337 238.927 82.0041 238.927Z" fill="#898989"/>
<path d="M95.6021 239.04C96.9351 239.04 98.0155 237.959 98.0155 236.626C98.0155 235.294 96.9351 234.213 95.6021 234.213C94.2693 234.213 93.1888 235.294 93.1888 236.626C93.1888 237.959 94.2693 239.04 95.6021 239.04Z" fill="#898989"/>
<path d="M109.2 238.927C110.471 238.927 111.5 237.897 111.5 236.626C111.5 235.356 110.47 234.326 109.2 234.326C107.93 234.326 106.9 235.356 106.9 236.626C106.9 237.897 107.93 238.927 109.2 238.927Z" fill="#898989"/>
<path d="M122.799 238.738C123.965 238.738 124.91 237.792 124.91 236.626C124.91 235.46 123.965 234.515 122.799 234.515C121.632 234.515 120.687 235.46 120.687 236.626C120.687 237.793 121.632 238.738 122.799 238.738Z" fill="#898989"/>
<path d="M136.397 238.399C137.375 238.399 138.169 237.605 138.169 236.626C138.169 235.648 137.375 234.854 136.397 234.854C135.418 234.854 134.625 235.648 134.625 236.626C134.625 237.605 135.418 238.399 136.397 238.399Z" fill="#898989"/>
<path d="M149.995 237.984C150.745 237.984 151.352 237.376 151.352 236.626C151.352 235.877 150.745 235.269 149.995 235.269C149.245 235.269 148.638 235.877 148.638 236.626C148.638 237.376 149.245 237.984 149.995 237.984Z" fill="#898989"/>
<path d="M163.593 237.494C164.072 237.494 164.461 237.105 164.461 236.626C164.461 236.147 164.072 235.759 163.593 235.759C163.114 235.759 162.726 236.147 162.726 236.626C162.726 237.105 163.114 237.494 163.593 237.494Z" fill="#898989"/>
<path d="M177.191 236.966C177.379 236.966 177.531 236.814 177.531 236.626C177.531 236.439 177.379 236.287 177.191 236.287C177.004 236.287 176.852 236.439 176.852 236.626C176.852 236.814 177.004 236.966 177.191 236.966Z" fill="#898989"/>
<path d="M14.0127 250.262C14.0334 250.262 14.0502 250.245 14.0502 250.224C14.0502 250.204 14.0334 250.187 14.0127 250.187C13.992 250.187 13.9752 250.204 13.9752 250.224C13.9752 250.245 13.992 250.262 14.0127 250.262Z" fill="#898989"/>
<path d="M27.6113 250.639C27.8404 250.639 28.0261 250.454 28.0261 250.225C28.0261 249.996 27.8404 249.81 27.6113 249.81C27.3821 249.81 27.1967 249.996 27.1967 250.225C27.1965 250.454 27.3821 250.639 27.6113 250.639Z" fill="#898989"/>
<path d="M41.2095 251.054C41.6676 251.054 42.0389 250.683 42.0389 250.225C42.0389 249.766 41.6676 249.395 41.2095 249.395C40.7512 249.395 40.38 249.766 40.38 250.225C40.3798 250.683 40.7512 251.054 41.2095 251.054Z" fill="#898989"/>
<path d="M54.8075 251.431C55.4738 251.431 56.0141 250.891 56.0141 250.225C56.0141 249.558 55.4738 249.018 54.8075 249.018C54.1411 249.018 53.6008 249.558 53.6008 250.225C53.601 250.891 54.1412 251.431 54.8075 251.431Z" fill="#898989"/>
<path d="M68.4058 251.733C69.2388 251.733 69.914 251.058 69.914 250.224C69.914 249.391 69.2388 248.716 68.4058 248.716C67.5729 248.716 66.8976 249.391 66.8976 250.224C66.8974 251.058 67.5727 251.733 68.4058 251.733Z" fill="#898989"/>
<path d="M82.0041 251.921C82.9412 251.921 83.7009 251.162 83.7009 250.225C83.7009 249.287 82.9412 248.528 82.0041 248.528C81.0669 248.528 80.3073 249.287 80.3073 250.225C80.3073 251.162 81.0669 251.921 82.0041 251.921Z" fill="#898989"/>
<path d="M95.6021 251.997C96.5809 251.997 97.3744 251.203 97.3744 250.225C97.3744 249.246 96.5809 248.452 95.6021 248.452C94.6232 248.452 93.8297 249.246 93.8297 250.225C93.8297 251.203 94.6232 251.997 95.6021 251.997Z" fill="#898989"/>
<path d="M109.2 251.921C110.137 251.921 110.897 251.162 110.897 250.225C110.897 249.287 110.137 248.528 109.2 248.528C108.263 248.528 107.503 249.287 107.503 250.225C107.503 251.162 108.263 251.921 109.2 251.921Z" fill="#898989"/>
<path d="M122.799 251.733C123.632 251.733 124.307 251.058 124.307 250.224C124.307 249.391 123.632 248.716 122.799 248.716C121.966 248.716 121.29 249.391 121.29 250.224C121.29 251.058 121.966 251.733 122.799 251.733Z" fill="#898989"/>
<path d="M136.397 251.469C137.084 251.469 137.641 250.912 137.641 250.224C137.641 249.537 137.084 248.98 136.397 248.98C135.71 248.98 135.152 249.537 135.152 250.224C135.152 250.912 135.71 251.469 136.397 251.469Z" fill="#898989"/>
<path d="M149.995 251.092C150.474 251.092 150.862 250.704 150.862 250.224C150.862 249.745 150.474 249.357 149.995 249.357C149.516 249.357 149.128 249.745 149.128 250.224C149.128 250.704 149.516 251.092 149.995 251.092Z" fill="#898989"/>
<path d="M163.593 250.677C163.843 250.677 164.046 250.474 164.046 250.225C164.046 249.975 163.843 249.772 163.593 249.772C163.343 249.772 163.141 249.975 163.141 250.225C163.141 250.474 163.343 250.677 163.593 250.677Z" fill="#898989"/>
<path d="M177.191 250.299C177.232 250.299 177.266 250.266 177.266 250.224C177.266 250.183 177.232 250.149 177.191 250.149C177.15 250.149 177.116 250.183 177.116 250.224C177.116 250.266 177.15 250.299 177.191 250.299Z" fill="#898989"/>
<path d="M27.6111 263.86C27.6318 263.86 27.6486 263.843 27.6486 263.823C27.6486 263.802 27.6318 263.785 27.6111 263.785C27.5904 263.785 27.5736 263.802 27.5736 263.823C27.5736 263.843 27.5904 263.86 27.6111 263.86Z" fill="#898989"/>
<path d="M41.2095 264.162C41.3969 264.162 41.5488 264.01 41.5488 263.823C41.5488 263.635 41.3969 263.483 41.2095 263.483C41.0221 263.483 40.87 263.635 40.87 263.823C40.87 264.01 41.0221 264.162 41.2095 264.162Z" fill="#898989"/>
<path d="M54.8075 264.464C55.1616 264.464 55.4485 264.177 55.4485 263.823C55.4485 263.468 55.1614 263.182 54.8075 263.182C54.4535 263.182 54.1664 263.468 54.1664 263.823C54.1664 264.177 54.4535 264.464 54.8075 264.464Z" fill="#898989"/>
<path d="M68.4059 264.728C68.9057 264.728 69.3109 264.323 69.3109 263.823C69.3109 263.323 68.9057 262.918 68.4059 262.918C67.906 262.918 67.5009 263.323 67.5009 263.823C67.5009 264.323 67.906 264.728 68.4059 264.728Z" fill="#898989"/>
<path d="M82.004 264.879C82.5872 264.879 83.0599 264.406 83.0599 263.823C83.0599 263.24 82.5872 262.767 82.004 262.767C81.4209 262.767 80.9481 263.24 80.9481 263.823C80.9481 264.406 81.4209 264.879 82.004 264.879Z" fill="#898989"/>
<path d="M95.602 264.954C96.2269 264.954 96.7333 264.448 96.7333 263.823C96.7333 263.198 96.2269 262.692 95.602 262.692C94.9772 262.692 94.4709 263.198 94.4709 263.823C94.4709 264.447 94.9774 264.954 95.602 264.954Z" fill="#898989"/>
<path d="M109.2 264.879C109.783 264.879 110.256 264.406 110.256 263.823C110.256 263.24 109.783 262.767 109.2 262.767C108.617 262.767 108.144 263.24 108.144 263.823C108.144 264.406 108.617 264.879 109.2 264.879Z" fill="#898989"/>
<path d="M122.799 264.728C123.299 264.728 123.704 264.323 123.704 263.823C123.704 263.323 123.299 262.918 122.799 262.918C122.299 262.918 121.894 263.323 121.894 263.823C121.894 264.323 122.299 264.728 122.799 264.728Z" fill="#898989"/>
<path d="M136.397 264.501C136.771 264.501 137.075 264.197 137.075 263.823C137.075 263.448 136.771 263.144 136.397 263.144C136.022 263.144 135.718 263.448 135.718 263.823C135.718 264.197 136.022 264.501 136.397 264.501Z" fill="#898989"/>
<path d="M149.995 264.162C150.182 264.162 150.334 264.01 150.334 263.823C150.334 263.635 150.182 263.483 149.995 263.483C149.807 263.483 149.655 263.635 149.655 263.823C149.655 264.01 149.807 264.162 149.995 264.162Z" fill="#898989"/>
<path d="M163.593 263.897C163.634 263.897 163.668 263.864 163.668 263.822C163.668 263.781 163.634 263.747 163.593 263.747C163.552 263.747 163.518 263.781 163.518 263.822C163.518 263.864 163.552 263.897 163.593 263.897Z" fill="#898989"/>
<path d="M54.8075 277.534C54.8699 277.534 54.9207 277.484 54.9207 277.421C54.9207 277.359 54.8701 277.308 54.8075 277.308C54.7451 277.308 54.6945 277.359 54.6945 277.421C54.6945 277.483 54.7451 277.534 54.8075 277.534Z" fill="#898989"/>
<path d="M68.4058 277.723C68.5724 277.723 68.7076 277.588 68.7076 277.421C68.7076 277.254 68.5726 277.119 68.4058 277.119C68.2391 277.119 68.104 277.254 68.104 277.421C68.104 277.588 68.2391 277.723 68.4058 277.723Z" fill="#898989"/>
<path d="M82.0041 277.836C82.233 277.836 82.4187 277.65 82.4187 277.421C82.4187 277.192 82.233 277.006 82.0041 277.006C81.7749 277.006 81.5892 277.192 81.5892 277.421C81.5892 277.65 81.7749 277.836 82.0041 277.836Z" fill="#898989"/>
<path d="M95.602 277.911C95.8729 277.911 96.0922 277.692 96.0922 277.421C96.0922 277.15 95.8727 276.931 95.602 276.931C95.3313 276.931 95.1118 277.15 95.1118 277.421C95.1118 277.692 95.3313 277.911 95.602 277.911Z" fill="#898989"/>
<path d="M109.2 277.836C109.429 277.836 109.615 277.65 109.615 277.421C109.615 277.192 109.429 277.006 109.2 277.006C108.971 277.006 108.786 277.192 108.786 277.421C108.786 277.65 108.971 277.836 109.2 277.836Z" fill="#898989"/>
<path d="M122.799 277.723C122.965 277.723 123.1 277.588 123.1 277.421C123.1 277.254 122.965 277.119 122.799 277.119C122.632 277.119 122.497 277.254 122.497 277.421C122.497 277.588 122.632 277.723 122.799 277.723Z" fill="#898989"/>
<path d="M136.397 277.572C136.48 277.572 136.548 277.504 136.548 277.421C136.548 277.338 136.48 277.27 136.397 277.27C136.313 277.27 136.246 277.338 136.246 277.421C136.246 277.504 136.313 277.572 136.397 277.572Z" fill="#898989"/>
<path d="M95.6019 291.057C95.6227 291.057 95.6394 291.04 95.6394 291.019C95.6394 290.998 95.6227 290.982 95.6019 290.982C95.5812 290.982 95.5645 290.998 95.5645 291.019C95.5645 291.04 95.5814 291.057 95.6019 291.057Z" fill="#898989"/>
<path d="M226.168 222.731C267.171 181.727 267.171 115.247 226.168 74.2436C185.164 33.24 118.684 33.2399 77.6807 74.2434C36.6772 115.247 36.6772 181.727 77.6808 222.73C118.684 263.734 185.164 263.734 226.168 222.731Z" fill="#D0837F"/>
<path d="M139.277 236.485C80.9883 236.485 33.5676 189.065 33.5676 130.777C33.5676 72.4889 80.9883 25.0677 139.277 25.0677C197.565 25.0677 244.985 72.4891 244.985 130.777H243.562C243.562 73.2728 196.78 26.4907 139.277 26.4907C81.7728 26.4907 34.9908 73.2726 34.9908 130.777C34.9908 188.28 81.7728 235.062 139.277 235.062V236.485Z" fill="#161616"/>
<path d="M171.855 99.486C170.577 87.9917 167.911 78.2006 165.089 73.5355C149.163 87.0778 130.596 94.6054 126.474 96.179L128.312 112.708C130.915 113.138 138.986 114.615 148.972 117.697L149.074 118.613C149.229 120.011 148.218 121.275 146.82 121.43L127.979 123.525C126.581 123.681 125.317 122.67 125.162 121.272L124.11 111.818L125.487 111.665L123.944 97.795L115.493 98.7348C115.015 98.7879 114.697 99.3753 114.504 100.27L111.789 100.572C110.003 100.77 111.232 111.825 113.018 111.621L115.733 111.319C116.118 112.155 116.557 112.658 117.036 112.605L121.29 112.132L122.341 121.586C122.669 124.539 125.339 126.675 128.293 126.346L147.134 124.251C149.974 123.936 152.051 121.454 151.915 118.638C157.953 120.617 164.519 123.162 170.927 126.393C172.68 121.248 173.142 111.058 171.855 99.486Z" fill="#F9F9F9"/>
<path d="M169.308 69.7413C168.467 69.8348 167.731 70.5405 167.114 71.7558C170.289 75.5725 173.448 86.3025 174.877 99.1523C176.31 112.045 175.574 123.231 173.298 127.626C173.333 127.646 173.373 127.665 173.409 127.685C174.25 128.662 175.096 129.158 175.904 129.068C179.797 128.635 181.48 115.001 179.659 98.6206C177.838 82.2398 173.201 69.3085 169.308 69.7413Z" fill="#F9F9F9"/>
<path d="M66.6476 175.147C65.0938 172.64 64.7089 169.023 65.4912 164.293L68.0901 148.594C68.8906 143.758 70.4702 140.104 72.8299 137.631C75.1884 135.16 78.738 133.923 83.4771 133.923C87.9968 133.923 91.0148 135.016 92.5317 137.198C94.0473 139.383 94.4677 142.514 93.7928 146.591L93.1834 150.273H84.4345L85.1065 146.212C85.3219 144.912 85.4309 143.866 85.4346 143.072C85.4381 142.279 85.2191 141.62 84.7778 141.096C84.3352 140.574 83.5681 140.311 82.4743 140.311C80.8345 140.311 79.6899 140.835 79.0436 141.881C78.3952 142.928 77.9052 144.462 77.5712 146.483L74.2732 166.405C73.9326 168.463 73.9521 169.997 74.3315 171.007C74.711 172.018 75.6477 172.522 77.1424 172.522C78.674 172.522 79.7435 172.008 80.3507 170.98C80.9582 169.951 81.4298 168.427 81.7643 166.405L82.4722 162.128H91.2211L90.6206 165.756C89.9278 169.943 88.4617 173.183 86.2235 175.473C83.9843 177.766 80.587 178.912 76.0307 178.912C71.3284 178.911 68.2007 177.657 66.6476 175.147Z" fill="#F9F9F9"/>
<path d="M96.9223 175.256C95.3198 172.821 94.9106 169.24 95.6929 164.51L98.3995 148.16C99.182 143.434 100.773 139.877 103.172 137.497C105.57 135.114 109.122 133.923 113.824 133.923C118.49 133.923 121.636 135.124 123.263 137.523C124.889 139.925 125.313 143.47 124.537 148.16L121.821 164.564C121.045 169.256 119.444 172.821 117.017 175.256C114.59 177.692 111.043 178.911 106.378 178.911C101.675 178.911 98.5227 177.692 96.9223 175.256ZM110.781 170.98C111.478 169.951 111.978 168.535 112.277 166.73L115.709 145.995C116.007 144.191 115.975 142.793 115.61 141.799C115.246 140.807 114.298 140.311 112.767 140.311C111.237 140.311 110.123 140.807 109.431 141.799C108.738 142.793 108.242 144.191 107.944 145.995L104.512 166.73C104.207 168.571 104.227 169.997 104.57 171.007C104.912 172.018 105.868 172.522 107.435 172.522C108.966 172.522 110.082 172.008 110.781 170.98Z" fill="#F9F9F9"/>
<path d="M133.419 134.464H142.988L143.877 162.128L154.252 134.464H163.493L157.055 178.315H150.493L154.711 148.54L144.095 178.315H138.518L137.623 148.377L132.011 178.315H125.395L133.419 134.464Z" fill="#F9F9F9"/>
<path d="M170.929 134.464H179.897L172.639 178.315H163.671L170.929 134.464Z" fill="#F9F9F9"/>
<path d="M186.622 134.464H192.91L198.98 157.255L202.753 134.464H210.244L202.986 178.315H196.916L191.088 154.062L187.074 178.315H179.364L186.622 134.464Z" fill="#F9F9F9"/>
<path d="M212.303 175.041C210.896 172.424 210.595 168.68 211.402 163.807L213.83 149.135C214.654 144.155 216.255 140.375 218.633 137.794C221.009 135.215 224.568 133.924 229.307 133.924C233.863 133.924 236.925 135.024 238.493 137.226C240.06 139.427 240.502 142.604 239.814 146.754L239.393 149.298H230.644L231.155 146.212C231.489 144.191 231.507 142.703 231.211 141.745C230.912 140.79 229.963 140.311 228.359 140.311C226.719 140.311 225.571 140.853 224.918 141.936C224.265 143.018 223.768 144.587 223.428 146.646L220.202 166.135C219.861 168.192 219.892 169.771 220.292 170.871C220.693 171.974 221.696 172.522 223.301 172.522C224.867 172.522 226.067 171.937 226.899 170.763C227.731 169.591 228.321 167.958 228.667 165.864L229.438 161.208H225.119L226.015 155.795H238.482L234.754 178.315H228.848L228.893 174.417C227.041 177.449 224.366 178.965 220.866 178.965C216.565 178.965 213.711 177.658 212.303 175.041Z" fill="#F9F9F9"/>
<path d="M147.788 232.313C145.918 229.836 145.313 225.999 145.971 220.804L154.876 219.353C154.443 222.455 154.502 224.741 155.053 226.21C155.602 227.682 156.671 228.416 158.258 228.416C159.437 228.416 160.354 228.043 161.005 227.298C161.657 226.553 162.081 225.597 162.274 224.428C162.594 222.495 162.428 220.854 161.777 219.504C161.125 218.155 159.997 216.675 158.393 215.064L153.997 210.653C152.242 208.961 150.986 207.148 150.229 205.214C149.47 203.281 149.314 200.965 149.76 198.267C150.421 194.278 152.12 191.208 154.856 189.052C157.593 186.898 161.056 185.82 165.247 185.82C169.722 185.82 172.622 187.1 173.948 189.657C175.274 192.216 175.733 195.468 175.324 199.415L166.387 200.684C166.732 198.107 166.752 196.203 166.448 194.974C166.142 193.746 165.236 193.131 163.732 193.131C162.633 193.131 161.711 193.544 160.964 194.37C160.217 195.195 159.75 196.172 159.563 197.299C159.297 198.912 159.427 200.271 159.956 201.379C160.484 202.486 161.411 203.705 162.738 205.034L167.022 209.384C169.041 211.438 170.535 213.603 171.501 215.88C172.466 218.155 172.696 220.825 172.189 223.885C171.803 226.221 170.929 228.306 169.568 230.138C168.205 231.971 166.472 233.411 164.367 234.459C162.261 235.505 159.947 236.029 157.425 236.029C152.868 236.029 149.656 234.791 147.788 232.313Z" fill="#2B2B2B"/>
<path d="M178.787 231.952C176.999 229.232 176.542 225.235 177.415 219.958L180.436 201.711C181.309 196.434 183.085 192.466 185.762 189.809C188.439 187.15 192.403 185.82 197.651 185.82C202.859 185.82 206.37 187.16 208.184 189.838C209.999 192.517 210.473 196.474 209.606 201.711L206.576 220.019C205.709 225.254 203.923 229.232 201.214 231.952C198.507 234.67 194.549 236.029 189.341 236.029C184.093 236.029 180.574 234.67 178.787 231.952ZM194.253 227.178C195.033 226.03 195.59 224.449 195.923 222.434L199.754 199.294C200.086 197.28 200.05 195.72 199.644 194.612C199.237 193.504 198.18 192.95 196.471 192.95C194.762 192.95 193.52 193.504 192.748 194.612C191.974 195.72 191.421 197.28 191.088 199.294L187.258 222.434C186.918 224.488 186.939 226.081 187.322 227.208C187.705 228.337 188.771 228.9 190.52 228.9C192.229 228.9 193.474 228.326 194.253 227.178Z" fill="#2B2B2B"/>
<path d="M213.937 231.952C212.15 229.232 211.693 225.235 212.566 219.958L215.586 201.711C216.46 196.434 218.235 192.466 220.913 189.809C223.59 187.15 227.554 185.82 232.802 185.82C238.01 185.82 241.521 187.16 243.335 189.838C245.15 192.517 245.623 196.474 244.757 201.711L241.726 220.019C240.86 225.254 239.073 229.232 236.364 231.952C233.657 234.67 229.699 236.029 224.491 236.029C219.243 236.029 215.725 234.67 213.937 231.952ZM229.404 227.178C230.184 226.03 230.741 224.449 231.074 222.434L234.904 199.294C235.237 197.28 235.2 195.72 234.795 194.612C234.388 193.504 233.33 192.95 231.622 192.95C229.913 192.95 228.671 193.504 227.898 194.612C227.125 195.72 226.572 197.28 226.239 199.294L222.409 222.434C222.069 224.488 222.09 226.081 222.473 227.208C222.856 228.337 223.922 228.9 225.671 228.9C227.38 228.9 228.625 228.326 229.404 227.178Z" fill="#2B2B2B"/>
<path d="M254 186.425H261.017L267.792 211.861L272.002 186.425H280.363L272.262 235.365H265.488L258.984 208.296L254.503 235.365H245.898L254 186.425Z" fill="#2B2B2B"/>
<path d="M292.013 33.7997L245.054 80.7593L246.06 81.7655L293.019 34.8059L292.013 33.7997Z" fill="#161616"/>
<path d="M40.1196 236.349L5.30859 271.16L6.31481 272.167L41.1259 237.356L40.1196 236.349Z" fill="#161616"/>
</svg>
